999
FreeCAD v1.1 20260725 (Git shallow)
  0
SECTION
  2
HEADER
  9
$ACADVER
  1
AC1014
  9
$ACADMAINTVER
 70
     9
  9
$DWGCODEPAGE
  3
ANSI_1252
  9
$TEXTSTYLE
  7
STANDARD
  9
$DIMSTYLE
  2
STANDARD
  9
$DIMTXSTY
  7
STANDARD
  9
$CMLSTYLE
  2
STANDARD
  9
$LUNITS
 70
2
  9
$INSUNITS
 70
4
  9
$PEXTMAX
 10
50
 20
50
 30
50
  9
$PEXTMIN
 10
0
 20
0
 30
0
  9
$HANDSEED
  5
FFFF
  0
ENDSEC
  0
SECTION
  2
CLASSES
  0
CLASS
  1
ACDBDICTIONARYWDFLT
  2
AcDbDictionaryWithDefault
  3
ObjectDBX Classes
 90
        0
280
     0
281
     0
  0
CLASS
  1
XRECORD
  2
AcDbXrecord
  3
ObjectDBX Classes
 90
        0
280
     0
281
     0
  0
CLASS
  1
LWPOLYLINE
  2
AcDbPolyline
  3
ObjectDBX Classes
 90
        0
280
     0
281
     1
  0
ENDSEC
  0
SECTION
  2
TABLES
  0
TABLE
  2
VPORT
  5
20
330
0
100
AcDbSymbolTable
 70
     1
  0
VPORT
  5
21
330
20
100
AcDbSymbolTableRecord
100
AcDbViewportTableRecord
  2
*ACTIVE
 70
     0
  0
ENDTAB
  0
TABLE
  2
LTYPE
  5
22
330
0
100
AcDbSymbolTable
 70
     1
  0
LTYPE
  5
23
330
21
100
AcDbSymbolTableRecord
100
AcDbLinetypeTableRecord
  2
BYBLOCK
 70
     0
  3

 72
    65
 73
     0
 40
0.0
  0
LTYPE
  5
24
330
21
100
AcDbSymbolTableRecord
100
AcDbLinetypeTableRecord
  2
BYLAYER
 70
     0
  3

 72
    65
 73
     0
 40
0.0
  0
LTYPE
  5
25
330
21
100
AcDbSymbolTableRecord
100
AcDbLinetypeTableRecord
  2
CONTINUOUS
 70
     0
  3
Solid line
 72
    65
 73
     0
 40
0.0
  0
ENDTAB
  0
TABLE
  2
LAYER
  5
A2D
330
0
100
AcDbSymbolTable
 70
3
  0
LAYER
  5
A2E
330
A2D
100
AcDbSymbolTableRecord
100
AcDbLayerTableRecord
  2
0
 70
   0
 62
   7
  6
CONTINUOUS
  0
LAYER
  5
A2F
330
A2D
100
AcDbSymbolTableRecord
100
AcDbLayerTableRecord
  2
none
 70
    0
 62
    7
  6
CONTINUOUS
  0
LAYER
  5
A30
330
A2D
100
AcDbSymbolTableRecord
100
AcDbLayerTableRecord
  2
BLOCK_side_panel
 70
    0
 62
    7
  6
CONTINUOUS
  0
ENDTAB
  0
TABLE
  2
STYLE
  5
70
330
0
100
AcDbSymbolTable
 70
     2
  0
STYLE
  5
71
330
70
100
AcDbSymbolTableRecord
100
AcDbTextStyleTableRecord
  2
STANDARD
 70
     0
 40
0.0
 41
1.0
 50
0.0
 71
     0
 42
2.5
  3
arial.ttf
  4

  0
STYLE
  5
72
330
70
100
AcDbSymbolTableRecord
100
AcDbTextStyleTableRecord
  2
ANNOTATIVE
 70
     0
 40
0.0
 41
1.0
 50
0.0
 71
     0
 42
2.5
  3
arial.ttf
  4

  0
ENDTAB
  0
TABLE
  2
VIEW
  5
73
330
0
100
AcDbSymbolTable
 70
     0
  0
ENDTAB
  0
TABLE
  2
UCS
  5
74
330
0
100
AcDbSymbolTable
 70
     0
  0
ENDTAB
  0
TABLE
  2
APPID
  5
75
330
0
100
AcDbSymbolTable
 70
     2
  0
APPID
  5
76
330
75
100
AcDbSymbolTableRecord
100
AcDbRegAppTableRecord
  2
ACAD
 70
     0
  0
APPID
  5
77
330
75
100
AcDbSymbolTableRecord
100
AcDbRegAppTableRecord
  2
ACADANNOTATIVE
 70
     0
  0
ENDTAB
  0
TABLE
  2
DIMSTYLE
  5
78
330
0
100
AcDbSymbolTable
 70
     2
  0
DIMSTYLE
105
79
330
78
100
AcDbSymbolTableRecord
100
AcDbDimStyleTableRecord
  2
STANDARD
 70
     0
  3

  4

  5

  6

  7

 40
0.0
 41
2.5
 42
0.625
 43
3.75
 44
1.25
 45
0.0
 46
0.0
 47
0.0
 48
0.0
140
2.5
141
2.5
142
0.0
143
0.03937007874016
144
1.0
145
0.0
146
1.0
147
0.625
 71
     0
 72
     0
 73
     0
 74
     0
 75
     0
 76
     0
 77
     1
 78
     8
170
     0
171
     3
172
     1
173
     0
174
     0
175
     0
176
     0
177
     0
178
     0
270
     2
271
     2
272
     2
273
     2
274
     3
340
71
275
     0
280
     0
281
     0
282
     0
283
     0
284
     8
285
     0
286
     0
287
     3
288
     0
  0
ENDTAB
  0
TABLE
  2
BLOCK_RECORD
  5
A01
330
0
100
AcDbSymbolTable
  70
5
  0
BLOCK_RECORD
  5
A02
330
A01
100
AcDbSymbolTableRecord
100
AcDbBlockTableRecord
  2
*MODEL_SPACE
  0
BLOCK_RECORD
  5
A03
330
A01
100
AcDbSymbolTableRecord
100
AcDbBlockTableRecord
  2
*PAPER_SPACE
  0
ENDTAB
  0
ENDSEC
  0
SECTION
  2
BLOCKS
  0
BLOCK
  5
A04
330
A02
100
AcDbEntity
  8
0
100
AcDbBlockBegin
  2
*MODEL_SPACE
 70
   0
 10
0
 20
0
 30
0
  3
*MODEL_SPACE
  1
 
  0
ENDBLK
  5
A05
330
A02
100
AcDbEntity
  8
0
100
AcDbBlockEnd
  0
BLOCK
  5
A06
330
A03
100
AcDbEntity
 67
1
  8
0
100
AcDbBlockBegin
  2
*PAPER_SPACE
 70
   0
 10
0
 20
0
 30
0
  3
*PAPER_SPACE
  1
 
  0
ENDBLK
  5
A07
330
A03
100
AcDbEntity
 67
    1
  8
0
100
AcDbBlockEnd
  0
ENDSEC
  0
SECTION
  2
ENTITIES
  0
LINE
  5
A08
330
A02
100
AcDbEntity
  8
BLOCK_side_panel
100
AcDbLine
 10
1076.215965943
 20
109.497872465
 30
0.000000000
 11
1080.471168827
 21
95.060576963
 31
0.000000000
  0
LINE
  5
A09
330
A02
100
AcDbEntity
  8
BLOCK_side_panel
100
AcDbLine
 10
953.440960426
 20
66.225517830
 30
0.000000000
 11
966.287599910
 21
22.638705295
 31
0.000000000
  0
LINE
  5
A0A
330
A02
100
AcDbEntity
  8
BLOCK_side_panel
100
AcDbLine
 10
938.701797863
 20
63.176035920
 30
0.000000000
 11
951.899531400
 21
18.398011418
 31
0.000000000
  0
LINE
  5
A0B
330
A02
100
AcDbEntity
  8
BLOCK_side_panel
100
AcDbLine
 10
951.899531400
 20
18.398011418
 30
0.000000000
 11
966.287599910
 21
22.638705295
 31
0.000000000
  0
LINE
  5
A0C
330
A02
100
AcDbEntity
  8
BLOCK_side_panel
100
AcDbLine
 10
933.737394498
 20
80.019547338
 30
0.000000000
 11
937.992597382
 21
65.582251837
 31
0.000000000
  0
LINE
  5
A0D
330
A02
100
AcDbEntity
  8
BLOCK_side_panel
100
AcDbLine
 10
953.440960426
 20
66.225517830
 30
0.000000000
 11
938.499111392
 21
63.134100788
 31
0.000000000
  0
LINE
  5
A0E
330
A02
100
AcDbEntity
  8
BLOCK_side_panel
100
AcDbLine
 10
973.823218313
 20
16.000000000
 30
0.000000000
 11
1282.927969904
 21
16.000000000
 31
0.000000000
  0
LINE
  5
A0F
330
A02
100
AcDbEntity
  8
BLOCK_side_panel
100
AcDbLine
 10
973.823218313
 20
31.000000000
 30
0.000000000
 11
1282.927969904
 21
31.000000000
 31
0.000000000
  0
LINE
  5
A10
330
A02
100
AcDbEntity
  8
BLOCK_side_panel
100
AcDbLine
 10
1080.471168827
 20
95.060576963
 30
0.000000000
 11
937.992597382
 21
65.582251837
 31
0.000000000
  0
LINE
  5
A11
330
A02
100
AcDbEntity
  8
BLOCK_side_panel
100
AcDbLine
 10
1076.215965943
 20
109.497872465
 30
0.000000000
 11
933.737394498
 21
80.019547338
 31
0.000000000
  0
LINE
  5
A12
330
A02
100
AcDbEntity
  8
BLOCK_side_panel
100
AcDbLine
 10
1351.664036417
 20
436.765174046
 30
0.000000000
 11
1308.266485552
 21
18.486651876
 31
0.000000000
  0
LINE
  5
A13
330
A02
100
AcDbEntity
  8
BLOCK_side_panel
100
AcDbLine
 10
1336.744125163
 20
438.313156009
 30
0.000000000
 11
1293.346574297
 21
20.034633838
 31
0.000000000
  0
LINE
  5
A14
330
A02
100
AcDbEntity
  8
BLOCK_side_panel
100
AcDbLine
 10
1308.266485552
 20
18.486651876
 30
0.000000000
 11
1293.346574297
 21
20.034633838
 31
0.000000000
  0
LINE
  5
A15
330
A02
100
AcDbEntity
  8
BLOCK_side_panel
100
AcDbLine
 10
973.823218313
 20
31.000000000
 30
0.000000000
 11
973.823218313
 21
16.000000000
 31
0.000000000
  0
LINE
  5
A16
330
A02
100
AcDbEntity
  8
BLOCK_side_panel
100
AcDbLine
 10
1282.927969904
 20
16.000000000
 30
0.000000000
 11
1282.927969904
 21
31.000000000
 31
0.000000000
  0
LINE
  5
A17
330
A02
100
AcDbEntity
  8
BLOCK_side_panel
100
AcDbLine
 10
1336.744125163
 20
438.313156009
 30
0.000000000
 11
1351.664036417
 21
436.765174046
 31
0.000000000
  0
LINE
  5
A18
330
A02
100
AcDbEntity
  8
BLOCK_side_panel
100
AcDbLine
 10
1327.318048238
 20
439.115151142
 30
0.000000000
 11
1335.009165023
 21
451.993300179
 31
0.000000000
  0
LINE
  5
A19
330
A02
100
AcDbEntity
  8
BLOCK_side_panel
100
AcDbLine
 10
1312.627799543
 20
354.707401346
 30
0.000000000
 11
1319.959700680
 21
367.800081949
 31
0.000000000
  0
LINE
  5
A1A
330
A02
100
AcDbEntity
  8
BLOCK_side_panel
100
AcDbLine
 10
1231.488464849
 20
496.346707889
 30
0.000000000
 11
1238.820365987
 21
509.439388492
 31
0.000000000
  0
LINE
  5
A1B
330
A02
100
AcDbEntity
  8
BLOCK_side_panel
100
AcDbLine
 10
1231.488464849
 20
496.346707889
 30
0.000000000
 11
1327.318048238
 21
439.115151142
 31
0.000000000
  0
LINE
  5
A1C
330
A02
100
AcDbEntity
  8
BLOCK_side_panel
100
AcDbLine
 10
1192.384992114
 20
426.519078004
 30
0.000000000
 11
1312.627799543
 21
354.707401346
 31
0.000000000
  0
LINE
  5
A1D
330
A02
100
AcDbEntity
  8
BLOCK_side_panel
100
AcDbLine
 10
1199.716893252
 20
439.611758608
 30
0.000000000
 11
1319.959700680
 21
367.800081949
 31
0.000000000
  0
LINE
  5
A1E
330
A02
100
AcDbEntity
  8
BLOCK_side_panel
100
AcDbLine
 10
1192.384992114
 20
426.519078004
 30
0.000000000
 11
1199.716893252
 21
439.611758608
 31
0.000000000
  0
LINE
  5
A1F
330
A02
100
AcDbEntity
  8
BLOCK_side_panel
100
AcDbLine
 10
1238.820365987
 20
509.439388492
 30
0.000000000
 11
1335.009165023
 21
451.993300179
 31
0.000000000
  0
CIRCLE
  5
A20
330
A02
100
AcDbEntity
  8
BLOCK_side_panel
100
AcDbCircle
 10
982.183202652
 20
52.734266005
 30
0.000000000
 40
14.000000000
  0
ARC
  5
A21
330
A02
100
AcDbEntity
  8
BLOCK_side_panel
100
AcDbCircle
 10
1176.567522600
 20
438.183268337
 30
0.000000000
 40
7.500000000
100
AcDbArc
 50
150.751173663
 51
-162.552441847
  0
ARC
  5
A22
330
A02
100
AcDbEntity
  8
BLOCK_side_panel
100
AcDbCircle
 10
1029.448310914
 20
181.516111535
 30
0.000000000
 40
60.000000000
100
AcDbArc
 50
-78.310630825
 51
-56.016773721
  0
ARC
  5
A23
330
A02
100
AcDbEntity
  8
BLOCK_side_panel
100
AcDbCircle
 10
912.399824196
 20
355.157261492
 30
0.000000000
 40
269.407729565
100
AcDbArc
 50
-56.016773721
 51
17.447558153
  0
ARC
  5
A24
330
A02
100
AcDbEntity
  8
BLOCK_side_panel
100
AcDbCircle
 10
926.423328511
 20
83.612186408
 30
0.000000000
 40
15.000000000
100
AcDbArc
 50
101.689369175
 51
-163.577812502
  0
LINE
  5
A25
330
A02
100
AcDbEntity
  8
BLOCK_side_panel
100
AcDbLine
 10
1041.604647156
 20
122.760486364
 30
0.000000000
 11
923.384244450
 21
98.301092701
 31
0.000000000
  0
ARC
  5
A26
330
A02
100
AcDbEntity
  8
BLOCK_side_panel
100
AcDbCircle
 10
1233.681057731
 20
504.355351972
 30
0.000000000
 40
25.000000000
100
AcDbArc
 50
59.153412588
 51
150.751173663
  0
ARC
  5
A27
330
A02
100
AcDbEntity
  8
BLOCK_side_panel
100
AcDbCircle
 10
946.645867663
 20
15.000000000
 30
0.000000000
 40
15.000000000
100
AcDbArc
 50
-163.577812502
 51
-90.000000000
  0
LINE
  5
A28
330
A02
100
AcDbEntity
  8
BLOCK_side_panel
100
AcDbLine
 10
1170.023727481
 20
441.847793604
 30
0.000000000
 11
1211.868407332
 21
516.570436195
 31
0.000000000
  0
LINE
  5
A29
330
A02
100
AcDbEntity
  8
BLOCK_side_panel
100
AcDbLine
 10
1246.499585707
 20
525.818933699
 30
0.000000000
 11
1368.428963063
 21
453.000000000
 31
0.000000000
  0
LINE
  5
A2A
330
A02
100
AcDbEntity
  8
BLOCK_side_panel
100
AcDbLine
 10
912.035260001
 20
79.371492532
 30
0.000000000
 11
932.257799153
 21
10.759306123
 31
0.000000000
  0
LINE
  5
A2B
330
A02
100
AcDbEntity
  8
BLOCK_side_panel
100
AcDbLine
 10
1368.428963063
 20
453.000000000
 30
0.000000000
 11
1321.428963063
 21
0.000000000
 31
0.000000000
  0
LINE
  5
A2C
330
A02
100
AcDbEntity
  8
BLOCK_side_panel
100
AcDbLine
 10
946.645867663
 20
0.000000000
 30
0.000000000
 11
1321.428963063
 21
0.000000000
 31
0.000000000
  0
ENDSEC
  0
SECTION
  2
OBJECTS
  0
DICTIONARY
  5
F000
330
0
100
AcDbDictionary
  3
ACAD_GROUP
350
F001
  0
DICTIONARY
  5
F001
330
F000
100
AcDbDictionary
  0
ENDSEC
  0
EOF