999
FreeCAD v1.1 20260725 (Git shallow)
  0
SECTION
  2
HEADER
  9
$ACADVER
  1
AC1014
  9
$ACADMAINTVER
 70
     9
  9
$DWGCODEPAGE
  3
ANSI_1252
  9
$TEXTSTYLE
  7
STANDARD
  9
$DIMSTYLE
  2
STANDARD
  9
$DIMTXSTY
  7
STANDARD
  9
$CMLSTYLE
  2
STANDARD
  9
$LUNITS
 70
2
  9
$INSUNITS
 70
4
  9
$PEXTMAX
 10
50
 20
50
 30
50
  9
$PEXTMIN
 10
0
 20
0
 30
0
  9
$HANDSEED
  5
FFFF
  0
ENDSEC
  0
SECTION
  2
CLASSES
  0
CLASS
  1
ACDBDICTIONARYWDFLT
  2
AcDbDictionaryWithDefault
  3
ObjectDBX Classes
 90
        0
280
     0
281
     0
  0
CLASS
  1
XRECORD
  2
AcDbXrecord
  3
ObjectDBX Classes
 90
        0
280
     0
281
     0
  0
CLASS
  1
LWPOLYLINE
  2
AcDbPolyline
  3
ObjectDBX Classes
 90
        0
280
     0
281
     1
  0
ENDSEC
  0
SECTION
  2
TABLES
  0
TABLE
  2
VPORT
  5
20
330
0
100
AcDbSymbolTable
 70
     1
  0
VPORT
  5
21
330
20
100
AcDbSymbolTableRecord
100
AcDbViewportTableRecord
  2
*ACTIVE
 70
     0
  0
ENDTAB
  0
TABLE
  2
LTYPE
  5
22
330
0
100
AcDbSymbolTable
 70
     1
  0
LTYPE
  5
23
330
21
100
AcDbSymbolTableRecord
100
AcDbLinetypeTableRecord
  2
BYBLOCK
 70
     0
  3

 72
    65
 73
     0
 40
0.0
  0
LTYPE
  5
24
330
21
100
AcDbSymbolTableRecord
100
AcDbLinetypeTableRecord
  2
BYLAYER
 70
     0
  3

 72
    65
 73
     0
 40
0.0
  0
LTYPE
  5
25
330
21
100
AcDbSymbolTableRecord
100
AcDbLinetypeTableRecord
  2
CONTINUOUS
 70
     0
  3
Solid line
 72
    65
 73
     0
 40
0.0
  0
ENDTAB
  0
TABLE
  2
LAYER
  5
A84
330
0
100
AcDbSymbolTable
 70
3
  0
LAYER
  5
A85
330
A84
100
AcDbSymbolTableRecord
100
AcDbLayerTableRecord
  2
0
 70
   0
 62
   7
  6
CONTINUOUS
  0
LAYER
  5
A86
330
A84
100
AcDbSymbolTableRecord
100
AcDbLayerTableRecord
  2
none
 70
    0
 62
    7
  6
CONTINUOUS
  0
LAYER
  5
A87
330
A84
100
AcDbSymbolTableRecord
100
AcDbLayerTableRecord
  2
BLOCK_speaker_panel
 70
    0
 62
    7
  6
CONTINUOUS
  0
ENDTAB
  0
TABLE
  2
STYLE
  5
70
330
0
100
AcDbSymbolTable
 70
     2
  0
STYLE
  5
71
330
70
100
AcDbSymbolTableRecord
100
AcDbTextStyleTableRecord
  2
STANDARD
 70
     0
 40
0.0
 41
1.0
 50
0.0
 71
     0
 42
2.5
  3
arial.ttf
  4

  0
STYLE
  5
72
330
70
100
AcDbSymbolTableRecord
100
AcDbTextStyleTableRecord
  2
ANNOTATIVE
 70
     0
 40
0.0
 41
1.0
 50
0.0
 71
     0
 42
2.5
  3
arial.ttf
  4

  0
ENDTAB
  0
TABLE
  2
VIEW
  5
73
330
0
100
AcDbSymbolTable
 70
     0
  0
ENDTAB
  0
TABLE
  2
UCS
  5
74
330
0
100
AcDbSymbolTable
 70
     0
  0
ENDTAB
  0
TABLE
  2
APPID
  5
75
330
0
100
AcDbSymbolTable
 70
     2
  0
APPID
  5
76
330
75
100
AcDbSymbolTableRecord
100
AcDbRegAppTableRecord
  2
ACAD
 70
     0
  0
APPID
  5
77
330
75
100
AcDbSymbolTableRecord
100
AcDbRegAppTableRecord
  2
ACADANNOTATIVE
 70
     0
  0
ENDTAB
  0
TABLE
  2
DIMSTYLE
  5
78
330
0
100
AcDbSymbolTable
 70
     2
  0
DIMSTYLE
105
79
330
78
100
AcDbSymbolTableRecord
100
AcDbDimStyleTableRecord
  2
STANDARD
 70
     0
  3

  4

  5

  6

  7

 40
0.0
 41
2.5
 42
0.625
 43
3.75
 44
1.25
 45
0.0
 46
0.0
 47
0.0
 48
0.0
140
2.5
141
2.5
142
0.0
143
0.03937007874016
144
1.0
145
0.0
146
1.0
147
0.625
 71
     0
 72
     0
 73
     0
 74
     0
 75
     0
 76
     0
 77
     1
 78
     8
170
     0
171
     3
172
     1
173
     0
174
     0
175
     0
176
     0
177
     0
178
     0
270
     2
271
     2
272
     2
273
     2
274
     3
340
71
275
     0
280
     0
281
     0
282
     0
283
     0
284
     8
285
     0
286
     0
287
     3
288
     0
  0
ENDTAB
  0
TABLE
  2
BLOCK_RECORD
  5
A01
330
0
100
AcDbSymbolTable
  70
5
  0
BLOCK_RECORD
  5
A02
330
A01
100
AcDbSymbolTableRecord
100
AcDbBlockTableRecord
  2
*MODEL_SPACE
  0
BLOCK_RECORD
  5
A03
330
A01
100
AcDbSymbolTableRecord
100
AcDbBlockTableRecord
  2
*PAPER_SPACE
  0
ENDTAB
  0
ENDSEC
  0
SECTION
  2
BLOCKS
  0
BLOCK
  5
A04
330
A02
100
AcDbEntity
  8
0
100
AcDbBlockBegin
  2
*MODEL_SPACE
 70
   0
 10
0
 20
0
 30
0
  3
*MODEL_SPACE
  1
 
  0
ENDBLK
  5
A05
330
A02
100
AcDbEntity
  8
0
100
AcDbBlockEnd
  0
BLOCK
  5
A06
330
A03
100
AcDbEntity
 67
1
  8
0
100
AcDbBlockBegin
  2
*PAPER_SPACE
 70
   0
 10
0
 20
0
 30
0
  3
*PAPER_SPACE
  1
 
  0
ENDBLK
  5
A07
330
A03
100
AcDbEntity
 67
    1
  8
0
100
AcDbBlockEnd
  0
ENDSEC
  0
SECTION
  2
ENTITIES
  0
CIRCLE
  5
A08
330
A02
100
AcDbEntity
  8
BLOCK_speaker_panel
100
AcDbCircle
 10
783.000000000
 20
42.412749121
 30
0.000000000
 40
3.000000000
  0
CIRCLE
  5
A09
330
A02
100
AcDbEntity
  8
BLOCK_speaker_panel
100
AcDbCircle
 10
774.000000000
 20
42.412749121
 30
0.000000000
 40
3.000000000
  0
CIRCLE
  5
A0A
330
A02
100
AcDbEntity
  8
BLOCK_speaker_panel
100
AcDbCircle
 10
765.000000000
 20
42.412749121
 30
0.000000000
 40
3.000000000
  0
CIRCLE
  5
A0B
330
A02
100
AcDbEntity
  8
BLOCK_speaker_panel
100
AcDbCircle
 10
756.000000000
 20
42.412749121
 30
0.000000000
 40
3.000000000
  0
CIRCLE
  5
A0C
330
A02
100
AcDbEntity
  8
BLOCK_speaker_panel
100
AcDbCircle
 10
747.000000000
 20
42.412749121
 30
0.000000000
 40
3.000000000
  0
CIRCLE
  5
A0D
330
A02
100
AcDbEntity
  8
BLOCK_speaker_panel
100
AcDbCircle
 10
750.425421037
 20
59.633503577
 30
0.000000000
 40
3.000000000
  0
CIRCLE
  5
A0E
330
A02
100
AcDbEntity
  8
BLOCK_speaker_panel
100
AcDbCircle
 10
760.180194847
 20
74.232554274
 30
0.000000000
 40
3.000000000
  0
CIRCLE
  5
A0F
330
A02
100
AcDbEntity
  8
BLOCK_speaker_panel
100
AcDbCircle
 10
774.779245544
 20
83.987328084
 30
0.000000000
 40
3.000000000
  0
CIRCLE
  5
A10
330
A02
100
AcDbEntity
  8
BLOCK_speaker_panel
100
AcDbCircle
 10
792.000000000
 20
87.412749121
 30
0.000000000
 40
3.000000000
  0
CIRCLE
  5
A11
330
A02
100
AcDbEntity
  8
BLOCK_speaker_panel
100
AcDbCircle
 10
809.220754456
 20
83.987328084
 30
0.000000000
 40
3.000000000
  0
CIRCLE
  5
A12
330
A02
100
AcDbEntity
  8
BLOCK_speaker_panel
100
AcDbCircle
 10
823.819805153
 20
74.232554274
 30
0.000000000
 40
3.000000000
  0
CIRCLE
  5
A13
330
A02
100
AcDbEntity
  8
BLOCK_speaker_panel
100
AcDbCircle
 10
833.574578963
 20
59.633503577
 30
0.000000000
 40
3.000000000
  0
CIRCLE
  5
A14
330
A02
100
AcDbEntity
  8
BLOCK_speaker_panel
100
AcDbCircle
 10
837.000000000
 20
42.412749121
 30
0.000000000
 40
3.000000000
  0
CIRCLE
  5
A15
330
A02
100
AcDbEntity
  8
BLOCK_speaker_panel
100
AcDbCircle
 10
833.574578963
 20
25.191994664
 30
0.000000000
 40
3.000000000
  0
CIRCLE
  5
A16
330
A02
100
AcDbEntity
  8
BLOCK_speaker_panel
100
AcDbCircle
 10
823.819805153
 20
10.592943967
 30
0.000000000
 40
3.000000000
  0
CIRCLE
  5
A17
330
A02
100
AcDbEntity
  8
BLOCK_speaker_panel
100
AcDbCircle
 10
809.220754456
 20
0.838170158
 30
0.000000000
 40
3.000000000
  0
CIRCLE
  5
A18
330
A02
100
AcDbEntity
  8
BLOCK_speaker_panel
100
AcDbCircle
 10
792.000000000
 20
-2.587250879
 30
0.000000000
 40
3.000000000
  0
CIRCLE
  5
A19
330
A02
100
AcDbEntity
  8
BLOCK_speaker_panel
100
AcDbCircle
 10
774.779245544
 20
0.838170158
 30
0.000000000
 40
3.000000000
  0
CIRCLE
  5
A1A
330
A02
100
AcDbEntity
  8
BLOCK_speaker_panel
100
AcDbCircle
 10
760.180194847
 20
10.592943967
 30
0.000000000
 40
3.000000000
  0
CIRCLE
  5
A1B
330
A02
100
AcDbEntity
  8
BLOCK_speaker_panel
100
AcDbCircle
 10
750.425421037
 20
25.191994664
 30
0.000000000
 40
3.000000000
  0
CIRCLE
  5
A1C
330
A02
100
AcDbEntity
  8
BLOCK_speaker_panel
100
AcDbCircle
 10
828.000000000
 20
42.412749121
 30
0.000000000
 40
3.000000000
  0
CIRCLE
  5
A1D
330
A02
100
AcDbEntity
  8
BLOCK_speaker_panel
100
AcDbCircle
 10
819.000000000
 20
42.412749121
 30
0.000000000
 40
3.000000000
  0
CIRCLE
  5
A1E
330
A02
100
AcDbEntity
  8
BLOCK_speaker_panel
100
AcDbCircle
 10
810.000000000
 20
42.412749121
 30
0.000000000
 40
3.000000000
  0
CIRCLE
  5
A1F
330
A02
100
AcDbEntity
  8
BLOCK_speaker_panel
100
AcDbCircle
 10
801.000000000
 20
42.412749121
 30
0.000000000
 40
3.000000000
  0
CIRCLE
  5
A20
330
A02
100
AcDbEntity
  8
BLOCK_speaker_panel
100
AcDbCircle
 10
792.000000000
 20
51.412749121
 30
0.000000000
 40
3.000000000
  0
CIRCLE
  5
A21
330
A02
100
AcDbEntity
  8
BLOCK_speaker_panel
100
AcDbCircle
 10
792.000000000
 20
60.412749121
 30
0.000000000
 40
3.000000000
  0
CIRCLE
  5
A22
330
A02
100
AcDbEntity
  8
BLOCK_speaker_panel
100
AcDbCircle
 10
792.000000000
 20
69.412749121
 30
0.000000000
 40
3.000000000
  0
CIRCLE
  5
A23
330
A02
100
AcDbEntity
  8
BLOCK_speaker_panel
100
AcDbCircle
 10
792.000000000
 20
78.412749121
 30
0.000000000
 40
3.000000000
  0
CIRCLE
  5
A24
330
A02
100
AcDbEntity
  8
BLOCK_speaker_panel
100
AcDbCircle
 10
792.000000000
 20
33.412749121
 30
0.000000000
 40
3.000000000
  0
CIRCLE
  5
A25
330
A02
100
AcDbEntity
  8
BLOCK_speaker_panel
100
AcDbCircle
 10
779.272077939
 20
29.684827060
 30
0.000000000
 40
3.000000000
  0
CIRCLE
  5
A26
330
A02
100
AcDbEntity
  8
BLOCK_speaker_panel
100
AcDbCircle
 10
767.055252622
 20
32.080296447
 30
0.000000000
 40
3.000000000
  0
CIRCLE
  5
A27
330
A02
100
AcDbEntity
  8
BLOCK_speaker_panel
100
AcDbCircle
 10
758.740336830
 20
28.636145556
 30
0.000000000
 40
3.000000000
  0
CIRCLE
  5
A28
330
A02
100
AcDbEntity
  8
BLOCK_speaker_panel
100
AcDbCircle
 10
792.000000000
 20
24.412749121
 30
0.000000000
 40
3.000000000
  0
CIRCLE
  5
A29
330
A02
100
AcDbEntity
  8
BLOCK_speaker_panel
100
AcDbCircle
 10
792.000000000
 20
15.412749121
 30
0.000000000
 40
3.000000000
  0
CIRCLE
  5
A2A
330
A02
100
AcDbEntity
  8
BLOCK_speaker_panel
100
AcDbCircle
 10
792.000000000
 20
6.412749121
 30
0.000000000
 40
3.000000000
  0
CIRCLE
  5
A2B
330
A02
100
AcDbEntity
  8
BLOCK_speaker_panel
100
AcDbCircle
 10
772.908116908
 20
23.320866029
 30
0.000000000
 40
3.000000000
  0
CIRCLE
  5
A2C
330
A02
100
AcDbEntity
  8
BLOCK_speaker_panel
100
AcDbCircle
 10
766.544155877
 20
16.956904998
 30
0.000000000
 40
3.000000000
  0
CIRCLE
  5
A2D
330
A02
100
AcDbEntity
  8
BLOCK_speaker_panel
100
AcDbCircle
 10
781.667547326
 20
17.468001743
 30
0.000000000
 40
3.000000000
  0
CIRCLE
  5
A2E
330
A02
100
AcDbEntity
  8
BLOCK_speaker_panel
100
AcDbCircle
 10
778.223396435
 20
9.153085950
 30
0.000000000
 40
3.000000000
  0
CIRCLE
  5
A2F
330
A02
100
AcDbEntity
  8
BLOCK_speaker_panel
100
AcDbCircle
 10
758.740336830
 20
56.189352686
 30
0.000000000
 40
3.000000000
  0
CIRCLE
  5
A30
330
A02
100
AcDbEntity
  8
BLOCK_speaker_panel
100
AcDbCircle
 10
767.055252622
 20
52.745201795
 30
0.000000000
 40
3.000000000
  0
CIRCLE
  5
A31
330
A02
100
AcDbEntity
  8
BLOCK_speaker_panel
100
AcDbCircle
 10
772.908116908
 20
61.504632213
 30
0.000000000
 40
3.000000000
  0
CIRCLE
  5
A32
330
A02
100
AcDbEntity
  8
BLOCK_speaker_panel
100
AcDbCircle
 10
779.272077939
 20
55.140671182
 30
0.000000000
 40
3.000000000
  0
CIRCLE
  5
A33
330
A02
100
AcDbEntity
  8
BLOCK_speaker_panel
100
AcDbCircle
 10
766.544155877
 20
67.868593244
 30
0.000000000
 40
3.000000000
  0
CIRCLE
  5
A34
330
A02
100
AcDbEntity
  8
BLOCK_speaker_panel
100
AcDbCircle
 10
778.223396435
 20
75.672412291
 30
0.000000000
 40
3.000000000
  0
CIRCLE
  5
A35
330
A02
100
AcDbEntity
  8
BLOCK_speaker_panel
100
AcDbCircle
 10
781.667547326
 20
67.357496499
 30
0.000000000
 40
3.000000000
  0
CIRCLE
  5
A36
330
A02
100
AcDbEntity
  8
BLOCK_speaker_panel
100
AcDbCircle
 10
805.776603565
 20
75.672412291
 30
0.000000000
 40
3.000000000
  0
CIRCLE
  5
A37
330
A02
100
AcDbEntity
  8
BLOCK_speaker_panel
100
AcDbCircle
 10
802.332452674
 20
67.357496499
 30
0.000000000
 40
3.000000000
  0
CIRCLE
  5
A38
330
A02
100
AcDbEntity
  8
BLOCK_speaker_panel
100
AcDbCircle
 10
811.091883092
 20
61.504632213
 30
0.000000000
 40
3.000000000
  0
CIRCLE
  5
A39
330
A02
100
AcDbEntity
  8
BLOCK_speaker_panel
100
AcDbCircle
 10
804.727922061
 20
55.140671182
 30
0.000000000
 40
3.000000000
  0
CIRCLE
  5
A3A
330
A02
100
AcDbEntity
  8
BLOCK_speaker_panel
100
AcDbCircle
 10
817.455844123
 20
67.868593244
 30
0.000000000
 40
3.000000000
  0
CIRCLE
  5
A3B
330
A02
100
AcDbEntity
  8
BLOCK_speaker_panel
100
AcDbCircle
 10
825.259663170
 20
56.189352686
 30
0.000000000
 40
3.000000000
  0
CIRCLE
  5
A3C
330
A02
100
AcDbEntity
  8
BLOCK_speaker_panel
100
AcDbCircle
 10
816.944747378
 20
52.745201795
 30
0.000000000
 40
3.000000000
  0
CIRCLE
  5
A3D
330
A02
100
AcDbEntity
  8
BLOCK_speaker_panel
100
AcDbCircle
 10
825.259663170
 20
28.636145556
 30
0.000000000
 40
3.000000000
  0
CIRCLE
  5
A3E
330
A02
100
AcDbEntity
  8
BLOCK_speaker_panel
100
AcDbCircle
 10
816.944747378
 20
32.080296447
 30
0.000000000
 40
3.000000000
  0
CIRCLE
  5
A3F
330
A02
100
AcDbEntity
  8
BLOCK_speaker_panel
100
AcDbCircle
 10
811.091883092
 20
23.320866029
 30
0.000000000
 40
3.000000000
  0
CIRCLE
  5
A40
330
A02
100
AcDbEntity
  8
BLOCK_speaker_panel
100
AcDbCircle
 10
804.727922061
 20
29.684827060
 30
0.000000000
 40
3.000000000
  0
CIRCLE
  5
A41
330
A02
100
AcDbEntity
  8
BLOCK_speaker_panel
100
AcDbCircle
 10
817.455844123
 20
16.956904998
 30
0.000000000
 40
3.000000000
  0
CIRCLE
  5
A42
330
A02
100
AcDbEntity
  8
BLOCK_speaker_panel
100
AcDbCircle
 10
805.776603565
 20
9.153085950
 30
0.000000000
 40
3.000000000
  0
CIRCLE
  5
A43
330
A02
100
AcDbEntity
  8
BLOCK_speaker_panel
100
AcDbCircle
 10
802.332452674
 20
17.468001743
 30
0.000000000
 40
3.000000000
  0
CIRCLE
  5
A44
330
A02
100
AcDbEntity
  8
BLOCK_speaker_panel
100
AcDbCircle
 10
783.000000000
 20
286.412749121
 30
0.000000000
 40
3.000000000
  0
CIRCLE
  5
A45
330
A02
100
AcDbEntity
  8
BLOCK_speaker_panel
100
AcDbCircle
 10
774.000000000
 20
286.412749121
 30
0.000000000
 40
3.000000000
  0
CIRCLE
  5
A46
330
A02
100
AcDbEntity
  8
BLOCK_speaker_panel
100
AcDbCircle
 10
765.000000000
 20
286.412749121
 30
0.000000000
 40
3.000000000
  0
CIRCLE
  5
A47
330
A02
100
AcDbEntity
  8
BLOCK_speaker_panel
100
AcDbCircle
 10
756.000000000
 20
286.412749121
 30
0.000000000
 40
3.000000000
  0
CIRCLE
  5
A48
330
A02
100
AcDbEntity
  8
BLOCK_speaker_panel
100
AcDbCircle
 10
747.000000000
 20
286.412749121
 30
0.000000000
 40
3.000000000
  0
CIRCLE
  5
A49
330
A02
100
AcDbEntity
  8
BLOCK_speaker_panel
100
AcDbCircle
 10
750.425421037
 20
303.633503577
 30
0.000000000
 40
3.000000000
  0
CIRCLE
  5
A4A
330
A02
100
AcDbEntity
  8
BLOCK_speaker_panel
100
AcDbCircle
 10
760.180194847
 20
318.232554274
 30
0.000000000
 40
3.000000000
  0
CIRCLE
  5
A4B
330
A02
100
AcDbEntity
  8
BLOCK_speaker_panel
100
AcDbCircle
 10
774.779245544
 20
327.987328084
 30
0.000000000
 40
3.000000000
  0
CIRCLE
  5
A4C
330
A02
100
AcDbEntity
  8
BLOCK_speaker_panel
100
AcDbCircle
 10
792.000000000
 20
331.412749121
 30
0.000000000
 40
3.000000000
  0
CIRCLE
  5
A4D
330
A02
100
AcDbEntity
  8
BLOCK_speaker_panel
100
AcDbCircle
 10
809.220754456
 20
327.987328084
 30
0.000000000
 40
3.000000000
  0
CIRCLE
  5
A4E
330
A02
100
AcDbEntity
  8
BLOCK_speaker_panel
100
AcDbCircle
 10
823.819805153
 20
318.232554274
 30
0.000000000
 40
3.000000000
  0
CIRCLE
  5
A4F
330
A02
100
AcDbEntity
  8
BLOCK_speaker_panel
100
AcDbCircle
 10
833.574578963
 20
303.633503577
 30
0.000000000
 40
3.000000000
  0
CIRCLE
  5
A50
330
A02
100
AcDbEntity
  8
BLOCK_speaker_panel
100
AcDbCircle
 10
837.000000000
 20
286.412749121
 30
0.000000000
 40
3.000000000
  0
CIRCLE
  5
A51
330
A02
100
AcDbEntity
  8
BLOCK_speaker_panel
100
AcDbCircle
 10
833.574578963
 20
269.191994664
 30
0.000000000
 40
3.000000000
  0
CIRCLE
  5
A52
330
A02
100
AcDbEntity
  8
BLOCK_speaker_panel
100
AcDbCircle
 10
823.819805153
 20
254.592943967
 30
0.000000000
 40
3.000000000
  0
CIRCLE
  5
A53
330
A02
100
AcDbEntity
  8
BLOCK_speaker_panel
100
AcDbCircle
 10
809.220754456
 20
244.838170158
 30
0.000000000
 40
3.000000000
  0
CIRCLE
  5
A54
330
A02
100
AcDbEntity
  8
BLOCK_speaker_panel
100
AcDbCircle
 10
792.000000000
 20
241.412749121
 30
0.000000000
 40
3.000000000
  0
CIRCLE
  5
A55
330
A02
100
AcDbEntity
  8
BLOCK_speaker_panel
100
AcDbCircle
 10
774.779245544
 20
244.838170158
 30
0.000000000
 40
3.000000000
  0
CIRCLE
  5
A56
330
A02
100
AcDbEntity
  8
BLOCK_speaker_panel
100
AcDbCircle
 10
760.180194847
 20
254.592943967
 30
0.000000000
 40
3.000000000
  0
CIRCLE
  5
A57
330
A02
100
AcDbEntity
  8
BLOCK_speaker_panel
100
AcDbCircle
 10
750.425421037
 20
269.191994664
 30
0.000000000
 40
3.000000000
  0
CIRCLE
  5
A58
330
A02
100
AcDbEntity
  8
BLOCK_speaker_panel
100
AcDbCircle
 10
828.000000000
 20
286.412749121
 30
0.000000000
 40
3.000000000
  0
CIRCLE
  5
A59
330
A02
100
AcDbEntity
  8
BLOCK_speaker_panel
100
AcDbCircle
 10
819.000000000
 20
286.412749121
 30
0.000000000
 40
3.000000000
  0
CIRCLE
  5
A5A
330
A02
100
AcDbEntity
  8
BLOCK_speaker_panel
100
AcDbCircle
 10
810.000000000
 20
286.412749121
 30
0.000000000
 40
3.000000000
  0
CIRCLE
  5
A5B
330
A02
100
AcDbEntity
  8
BLOCK_speaker_panel
100
AcDbCircle
 10
801.000000000
 20
286.412749121
 30
0.000000000
 40
3.000000000
  0
CIRCLE
  5
A5C
330
A02
100
AcDbEntity
  8
BLOCK_speaker_panel
100
AcDbCircle
 10
792.000000000
 20
295.412749121
 30
0.000000000
 40
3.000000000
  0
CIRCLE
  5
A5D
330
A02
100
AcDbEntity
  8
BLOCK_speaker_panel
100
AcDbCircle
 10
792.000000000
 20
304.412749121
 30
0.000000000
 40
3.000000000
  0
CIRCLE
  5
A5E
330
A02
100
AcDbEntity
  8
BLOCK_speaker_panel
100
AcDbCircle
 10
792.000000000
 20
313.412749121
 30
0.000000000
 40
3.000000000
  0
CIRCLE
  5
A5F
330
A02
100
AcDbEntity
  8
BLOCK_speaker_panel
100
AcDbCircle
 10
792.000000000
 20
322.412749121
 30
0.000000000
 40
3.000000000
  0
CIRCLE
  5
A60
330
A02
100
AcDbEntity
  8
BLOCK_speaker_panel
100
AcDbCircle
 10
792.000000000
 20
277.412749121
 30
0.000000000
 40
3.000000000
  0
CIRCLE
  5
A61
330
A02
100
AcDbEntity
  8
BLOCK_speaker_panel
100
AcDbCircle
 10
779.272077939
 20
273.684827060
 30
0.000000000
 40
3.000000000
  0
CIRCLE
  5
A62
330
A02
100
AcDbEntity
  8
BLOCK_speaker_panel
100
AcDbCircle
 10
767.055252622
 20
276.080296447
 30
0.000000000
 40
3.000000000
  0
CIRCLE
  5
A63
330
A02
100
AcDbEntity
  8
BLOCK_speaker_panel
100
AcDbCircle
 10
758.740336830
 20
272.636145556
 30
0.000000000
 40
3.000000000
  0
CIRCLE
  5
A64
330
A02
100
AcDbEntity
  8
BLOCK_speaker_panel
100
AcDbCircle
 10
792.000000000
 20
268.412749121
 30
0.000000000
 40
3.000000000
  0
CIRCLE
  5
A65
330
A02
100
AcDbEntity
  8
BLOCK_speaker_panel
100
AcDbCircle
 10
792.000000000
 20
259.412749121
 30
0.000000000
 40
3.000000000
  0
CIRCLE
  5
A66
330
A02
100
AcDbEntity
  8
BLOCK_speaker_panel
100
AcDbCircle
 10
792.000000000
 20
250.412749121
 30
0.000000000
 40
3.000000000
  0
CIRCLE
  5
A67
330
A02
100
AcDbEntity
  8
BLOCK_speaker_panel
100
AcDbCircle
 10
772.908116908
 20
267.320866029
 30
0.000000000
 40
3.000000000
  0
CIRCLE
  5
A68
330
A02
100
AcDbEntity
  8
BLOCK_speaker_panel
100
AcDbCircle
 10
766.544155877
 20
260.956904998
 30
0.000000000
 40
3.000000000
  0
CIRCLE
  5
A69
330
A02
100
AcDbEntity
  8
BLOCK_speaker_panel
100
AcDbCircle
 10
781.667547326
 20
261.468001743
 30
0.000000000
 40
3.000000000
  0
CIRCLE
  5
A6A
330
A02
100
AcDbEntity
  8
BLOCK_speaker_panel
100
AcDbCircle
 10
778.223396435
 20
253.153085950
 30
0.000000000
 40
3.000000000
  0
CIRCLE
  5
A6B
330
A02
100
AcDbEntity
  8
BLOCK_speaker_panel
100
AcDbCircle
 10
758.740336830
 20
300.189352686
 30
0.000000000
 40
3.000000000
  0
CIRCLE
  5
A6C
330
A02
100
AcDbEntity
  8
BLOCK_speaker_panel
100
AcDbCircle
 10
767.055252622
 20
296.745201795
 30
0.000000000
 40
3.000000000
  0
CIRCLE
  5
A6D
330
A02
100
AcDbEntity
  8
BLOCK_speaker_panel
100
AcDbCircle
 10
772.908116908
 20
305.504632213
 30
0.000000000
 40
3.000000000
  0
CIRCLE
  5
A6E
330
A02
100
AcDbEntity
  8
BLOCK_speaker_panel
100
AcDbCircle
 10
779.272077939
 20
299.140671182
 30
0.000000000
 40
3.000000000
  0
CIRCLE
  5
A6F
330
A02
100
AcDbEntity
  8
BLOCK_speaker_panel
100
AcDbCircle
 10
766.544155877
 20
311.868593244
 30
0.000000000
 40
3.000000000
  0
CIRCLE
  5
A70
330
A02
100
AcDbEntity
  8
BLOCK_speaker_panel
100
AcDbCircle
 10
778.223396435
 20
319.672412291
 30
0.000000000
 40
3.000000000
  0
CIRCLE
  5
A71
330
A02
100
AcDbEntity
  8
BLOCK_speaker_panel
100
AcDbCircle
 10
781.667547326
 20
311.357496499
 30
0.000000000
 40
3.000000000
  0
CIRCLE
  5
A72
330
A02
100
AcDbEntity
  8
BLOCK_speaker_panel
100
AcDbCircle
 10
805.776603565
 20
319.672412291
 30
0.000000000
 40
3.000000000
  0
CIRCLE
  5
A73
330
A02
100
AcDbEntity
  8
BLOCK_speaker_panel
100
AcDbCircle
 10
802.332452674
 20
311.357496499
 30
0.000000000
 40
3.000000000
  0
CIRCLE
  5
A74
330
A02
100
AcDbEntity
  8
BLOCK_speaker_panel
100
AcDbCircle
 10
811.091883092
 20
305.504632213
 30
0.000000000
 40
3.000000000
  0
CIRCLE
  5
A75
330
A02
100
AcDbEntity
  8
BLOCK_speaker_panel
100
AcDbCircle
 10
804.727922061
 20
299.140671182
 30
0.000000000
 40
3.000000000
  0
CIRCLE
  5
A76
330
A02
100
AcDbEntity
  8
BLOCK_speaker_panel
100
AcDbCircle
 10
817.455844123
 20
311.868593244
 30
0.000000000
 40
3.000000000
  0
CIRCLE
  5
A77
330
A02
100
AcDbEntity
  8
BLOCK_speaker_panel
100
AcDbCircle
 10
825.259663170
 20
300.189352686
 30
0.000000000
 40
3.000000000
  0
CIRCLE
  5
A78
330
A02
100
AcDbEntity
  8
BLOCK_speaker_panel
100
AcDbCircle
 10
816.944747378
 20
296.745201795
 30
0.000000000
 40
3.000000000
  0
CIRCLE
  5
A79
330
A02
100
AcDbEntity
  8
BLOCK_speaker_panel
100
AcDbCircle
 10
825.259663170
 20
272.636145556
 30
0.000000000
 40
3.000000000
  0
CIRCLE
  5
A7A
330
A02
100
AcDbEntity
  8
BLOCK_speaker_panel
100
AcDbCircle
 10
816.944747378
 20
276.080296447
 30
0.000000000
 40
3.000000000
  0
CIRCLE
  5
A7B
330
A02
100
AcDbEntity
  8
BLOCK_speaker_panel
100
AcDbCircle
 10
811.091883092
 20
267.320866029
 30
0.000000000
 40
3.000000000
  0
CIRCLE
  5
A7C
330
A02
100
AcDbEntity
  8
BLOCK_speaker_panel
100
AcDbCircle
 10
804.727922061
 20
273.684827060
 30
0.000000000
 40
3.000000000
  0
CIRCLE
  5
A7D
330
A02
100
AcDbEntity
  8
BLOCK_speaker_panel
100
AcDbCircle
 10
817.455844123
 20
260.956904998
 30
0.000000000
 40
3.000000000
  0
CIRCLE
  5
A7E
330
A02
100
AcDbEntity
  8
BLOCK_speaker_panel
100
AcDbCircle
 10
805.776603565
 20
253.153085950
 30
0.000000000
 40
3.000000000
  0
CIRCLE
  5
A7F
330
A02
100
AcDbEntity
  8
BLOCK_speaker_panel
100
AcDbCircle
 10
802.332452674
 20
261.468001743
 30
0.000000000
 40
3.000000000
  0
LINE
  5
A80
330
A02
100
AcDbEntity
  8
BLOCK_speaker_panel
100
AcDbLine
 10
721.000000000
 20
389.412749121
 30
0.000000000
 11
863.000000000
 21
389.412749121
 31
0.000000000
  0
LINE
  5
A81
330
A02
100
AcDbEntity
  8
BLOCK_speaker_panel
100
AcDbLine
 10
721.000000000
 20
-60.587250879
 30
0.000000000
 11
721.000000000
 21
389.412749121
 31
0.000000000
  0
LINE
  5
A82
330
A02
100
AcDbEntity
  8
BLOCK_speaker_panel
100
AcDbLine
 10
863.000000000
 20
-60.587250879
 30
0.000000000
 11
721.000000000
 21
-60.587250879
 31
0.000000000
  0
LINE
  5
A83
330
A02
100
AcDbEntity
  8
BLOCK_speaker_panel
100
AcDbLine
 10
863.000000000
 20
-60.587250879
 30
0.000000000
 11
863.000000000
 21
389.412749121
 31
0.000000000
  0
ENDSEC
  0
SECTION
  2
OBJECTS
  0
DICTIONARY
  5
F000
330
0
100
AcDbDictionary
  3
ACAD_GROUP
350
F001
  0
DICTIONARY
  5
F001
330
F000
100
AcDbDictionary
  0
ENDSEC
  0
EOF